<svg xmlns="http://www.w3.org/2000/svg" width="900" height="300" viewBox="0 0 900 300">
  <rect x="10" y="20" width="880" height="260" rx="24" fill="#0f0f12" stroke="#2a2a33" stroke-width="4"/>
  <rect x="40" y="55" width="820" height="170" rx="14" fill="#15151a" stroke="#2a2a33" stroke-width="2"/>
  <!-- key grid -->
  <g fill="__KEY_COLOR__" stroke="#2f2f3a" stroke-width="2">
    <!-- row 1 -->
    <rect x="60" y="75" width="55" height="40" rx="8"/>
    <rect x="125" y="75" width="55" height="40" rx="8"/>
    <rect x="190" y="75" width="55" height="40" rx="8"/>
    <rect x="255" y="75" width="55" height="40" rx="8"/>
    <rect x="320" y="75" width="55" height="40" rx="8"/>
    <rect x="385" y="75" width="55" height="40" rx="8"/>
    <rect x="450" y="75" width="55" height="40" rx="8"/>
    <rect x="515" y="75" width="55" height="40" rx="8"/>
    <rect x="580" y="75" width="55" height="40" rx="8"/>
    <rect x="645" y="75" width="55" height="40" rx="8"/>
    <rect x="710" y="75" width="55" height="40" rx="8"/>
    <rect x="775" y="75" width="65" height="40" rx="8"/>
    <!-- row 2 -->
    <rect x="60" y="125" width="75" height="40" rx="8"/>
    <rect x="145" y="125" width="55" height="40" rx="8"/>
    <rect x="210" y="125" width="55" height="40" rx="8"/>
    <rect x="275" y="125" width="55" height="40" rx="8"/>
    <rect x="340" y="125" width="55" height="40" rx="8"/>
    <rect x="405" y="125" width="55" height="40" rx="8"/>
    <rect x="470" y="125" width="55" height="40" rx="8"/>
    <rect x="535" y="125" width="55" height="40" rx="8"/>
    <rect x="600" y="125" width="55" height="40" rx="8"/>
    <rect x="665" y="125" width="55" height="40" rx="8"/>
    <rect x="730" y="125" width="55" height="40" rx="8"/>
    <rect x="795" y="125" width="45" height="40" rx="8"/>
    <!-- row 3 -->
    <rect x="60" y="175" width="95" height="40" rx="8"/>
    <rect x="165" y="175" width="55" height="40" rx="8"/>
    <rect x="230" y="175" width="55" height="40" rx="8"/>
    <rect x="295" y="175" width="55" height="40" rx="8"/>
    <rect x="360" y="175" width="260" height="40" rx="10"/>
    <rect x="630" y="175" width="55" height="40" rx="8"/>
    <rect x="695" y="175" width="55" height="40" rx="8"/>
    <rect x="760" y="175" width="80" height="40" rx="8"/>
  </g>
  <!-- glow strip -->
  <rect x="40" y="235" width="820" height="18" rx="9" fill="#142033" stroke="#1C3F95" stroke-width="2"/>
</svg>
